<?xml version="1.0" encoding="UTF-8"?>
<svg width="372px" height="55px" viewBox="0 0 372 55" version="1.1" xmlns="http://www.w3.org/2000/svg" xmlns:xlink="http://www.w3.org/1999/xlink">
    <!-- Generator: Sketch 48.2 (47327) - http://www.bohemiancoding.com/sketch -->
    <title>Group</title>
    <desc>Created with Sketch.</desc>
    <defs>
        <path d="M343,19 L343,3 L364,3 L364,19 L374,19 L374,50 L332,50 L332,19 L343,19 Z M343,19 L343,34 L364,34 L364,19 L343,19 Z" id="path-1"></path>
    </defs>
    <g id="Page-1" stroke="none" stroke-width="1" fill="none" fill-rule="evenodd">
        <g id="Group" transform="translate(-2.000000, -3.000000)">
            <text id="StrangerCoffee" font-family="Helvetica" font-size="48" font-weight="normal" fill="#FFF">
                <tspan x="0" y="47">StrangerCoffee</tspan>
            </text>
            <g id="Combined-Shape">
                <use fill="#F4D35E" fill-rule="evenodd" xlink:href="#path-1"></use>
                <path stroke="#F4D35E" stroke-width="1" d="M332.5,19.5 L332.5,49.5 L373.5,49.5 L373.5,19.5 L363.5,19.5 L363.5,3.5 L343.5,3.5 L343.5,19.5 L332.5,19.5 Z M342.5,18.5 L364.5,18.5 L364.5,34.5 L342.5,34.5 L342.5,18.5 Z"></path>
            </g>
        </g>
    </g>
</svg>